<?xml version="1.0" encoding="utf-8"?>
<!-- Generator: Adobe Illustrator 16.0.0, SVG Export Plug-In . SVG Version: 6.00 Build 0)  -->
<!DOCTYPE svg PUBLIC "-//W3C//DTD SVG 1.1//EN" "http://www.w3.org/Graphics/SVG/1.1/DTD/svg11.dtd">
<svg version="1.1" id="Layer_1" xmlns="http://www.w3.org/2000/svg" xmlns:xlink="http://www.w3.org/1999/xlink" x="0px" y="0px"
	 width="595.28px" height="595.28px" viewBox="0 0 595.28 595.28" enable-background="new 0 0 595.28 595.28" xml:space="preserve">
<path fill="#009444" d="M154.723,138.934l293.294-0.057v-26.103H154.723c-34.492,0-47.337-8.777-47.337-32.292
	c0-30.301,12.608-32.504,33.421-32.504c2.261,0,4.459,0.056,6.602,0.112c2.26,0,4.459,0.056,6.541,0.056h294.067V21.973H153.95
	c-1.963,0-3.986,0-6.067-0.056c-2.317,0-4.697-0.056-7.076-0.056c-16.649,0-60.953,0-60.953,58.622
	C79.854,119.26,105.068,138.934,154.723,138.934L154.723,138.934z M154.723,138.934"/>
<rect x="137.538" y="57.375" fill="#F26522" width="293.293" height="8.664"/>
<rect x="137.538" y="75.506" fill="#F26522" width="293.293" height="8.649"/>
<rect x="137.538" y="94.741" fill="#F26522" width="293.293" height="8.72"/>
<polygon fill="#006838" points="448.018,21.86 471.954,35 448.018,48.139 "/>
<polygon fill="#00A14B" points="465.258,31.324 465.258,38.676 471.954,35 "/>
<path fill="#00AEEF" d="M402.138,301.059c2.737,0,5.53,0.059,8.388,0.059c19.802,0,72.548,0,72.548-69.759
	c0-46.169-29.972-69.586-89.142-69.586H44.799v31.16h349.132c41.093,0,56.435,10.388,56.435,38.426
	c0,36.065-15.042,38.667-39.841,38.667c-2.678,0-5.298-0.056-7.91-0.112c-2.616,0-5.233-0.057-7.729-0.057H44.799v31.089h350.086
	C397.202,300.945,399.643,301.004,402.138,301.059L402.138,301.059z M402.138,301.059"/>
<rect x="65.256" y="249.391" fill="#F26522" width="349.206" height="8.648"/>
<rect x="65.256" y="227.741" fill="#F26522" width="349.206" height="8.721"/>
<rect x="65.256" y="204.846" fill="#F26522" width="349.206" height="8.721"/>
<polygon fill="#1C75BC" points="44.799,192.932 16.413,177.352 44.799,161.771 "/>
<polygon fill="#00A79D" points="24.354,181.711 24.354,172.992 16.413,177.352 "/>
<path fill="#ED1C24" d="M508.495,324.406H117.796c-2.618,0-5.295-0.057-8.088-0.057c-3.034-0.057-6.187-0.112-9.337-0.112
	c-22.122,0-80.994,0-80.994,77.841c0,51.555,33.481,77.672,99.489,77.672h389.629v-34.767l-389.629,0.059
	c-45.91,0-62.976-11.647-62.976-42.964c0-40.25,16.829-43.131,44.481-43.131c2.973,0,5.889,0.056,8.741,0.112
	c2.975,0.056,5.887,0.056,8.684,0.056h390.699V324.406z M508.495,324.406"/>
<rect x="95.97" y="372.795" fill="#F26522" width="389.689" height="8.707"/>
<rect x="95.97" y="396.934" fill="#F26522" width="389.689" height="8.706"/>
<rect x="95.97" y="422.485" fill="#F26522" width="389.689" height="8.706"/>
<polygon fill="#DB495E" points="508.495,324.406 540.114,341.764 508.495,359.115 "/>
<polygon fill="#ED1C24" points="531.27,336.907 531.27,346.616 540.114,341.764 "/>
<rect x="4.987" y="502.239" fill="none" width="546.549" height="85.747"/>
<text transform="matrix(1.052 0 0 1 21.7261 565.4297)" fill="#F26522" font-family="'Bebas'" font-size="89.0022" letter-spacing="3.802">EDUCATION</text>
</svg>
